<?xml version="1.0" encoding="UTF-8" standalone="no"?>
<!DOCTYPE svg PUBLIC "-//W3C//DTD SVG 1.1//EN" "http://www.w3.org/Graphics/SVG/1.1/DTD/svg11.dtd">
<svg width="100%" height="100%" viewBox="0 0 16 16" version="1.1" xmlns="http://www.w3.org/2000/svg" xmlns:xlink="http://www.w3.org/1999/xlink" xml:space="preserve" xmlns:serif="http://www.serif.com/" style="fill-rule:evenodd;clip-rule:evenodd;stroke-linecap:round;stroke-linejoin:round;stroke-miterlimit:1.5;">
    <g transform="matrix(1.11715,0,0,1.11715,-2.52829,-1.46392)">
        <path d="M5.887,9.307L3.648,9.307L3.648,7.636L5.887,7.636C5.978,7.251 6.13,6.889 6.333,6.561L4.749,4.978L5.93,3.796L7.514,5.38C7.841,5.177 8.203,5.025 8.589,4.934L8.589,2.695L10.26,2.695L10.26,4.934C10.645,5.025 11.007,5.177 11.334,5.38L12.918,3.796L14.099,4.978L12.516,6.561C12.718,6.889 12.871,7.251 12.962,7.636L15.201,7.636L15.201,9.307L12.962,9.307C12.871,9.692 12.718,10.054 12.516,10.382L14.099,11.965L12.918,13.147L11.334,11.563C11.007,11.766 10.645,11.918 10.26,12.009L10.26,14.248L8.589,14.248L8.589,12.009C8.203,11.918 7.841,11.766 7.514,11.563L5.93,13.147L4.749,11.965L6.333,10.382C6.13,10.054 5.978,9.692 5.887,9.307Z" style="fill:none;stroke:rgb(230,120,225);stroke-width:1.79px;"/>
    </g>
    <g transform="matrix(0.240935,0,0,0.240935,5.72938,5.95893)">
        <circle cx="9.424" cy="8.471" r="3.634" style="fill:none;stroke:rgb(230,120,225);stroke-width:8.3px;"/>
    </g>
</svg>
